HIERARCHY
ROOT Hips
{
	OFFSET	0	0	0
	CHANNELS 6  Xposition Yposition Zposition Xrotation Yrotation Zrotation
	JOINT Spine
	{
		OFFSET	0	6.96713	1.39842
		CHANNELS 3  Xrotation Yrotation Zrotation
		JOINT Spine1
		{
			OFFSET	0	11.9256	-2.12957
			CHANNELS 3  Xrotation Yrotation Zrotation
			JOINT Spine2
			{
				OFFSET	0	9.04001	0.968953
				CHANNELS 3  Xrotation Yrotation Zrotation
				JOINT Spine3
				{
					OFFSET	0	10.8182	3.21564
					CHANNELS 3  Xrotation Yrotation Zrotation
					JOINT Spine4
					{
						OFFSET	0	16.0143	-1.63977
						CHANNELS 3  Xrotation Yrotation Zrotation
						JOINT Neck
						{
							OFFSET	0	7.64514	-5.35586
							CHANNELS 3  Xrotation Yrotation Zrotation
							JOINT Head
							{
								OFFSET	0	9.17843	-2.74714
								CHANNELS 3  Xrotation Yrotation Zrotation
								End Site
								{
									OFFSET	0	19.1448	-0.926361
								}
							}
						}
					}
					JOINT LeftShoulder
					{
						OFFSET	-4.59986	19.4642	-9.17843
						CHANNELS 3  Xrotation Yrotation Zrotation
						JOINT LeftArm
						{
							OFFSET	-10.0419	-2.74714	3.52445
							CHANNELS 3  Xrotation Yrotation Zrotation
							JOINT LeftForeArm
							{
								OFFSET	-34.0852	-1.5557	2.43296
								CHANNELS 3  Xrotation Yrotation Zrotation
								JOINT LeftHand
								{
									OFFSET	-26.9831	-1.86468	1.92602
									CHANNELS 3  Xrotation Yrotation Zrotation
									End Site
									{
										OFFSET	-9.84747	-0.680518	0.702856
									}
								}
							}
						}
					}
					JOINT RightShoulder
					{
						OFFSET	4.59986	19.4642	-9.17843
						CHANNELS 3  Xrotation Yrotation Zrotation
						JOINT RightArm
						{
							OFFSET	10.0419	-2.74714	3.52445
							CHANNELS 3  Xrotation Yrotation Zrotation
							JOINT RightForeArm
							{
								OFFSET	34.0852	-1.5557	2.43296
								CHANNELS 3  Xrotation Yrotation Zrotation
								JOINT RightHand
								{
									OFFSET	26.9831	-1.86468	1.92602
									CHANNELS 3  Xrotation Yrotation Zrotation
									End Site
									{
										OFFSET	9.84747	-0.680518	0.702856
									}
								}
							}
						}
					}
				}
			}
		}
	}
	JOINT LeftUpLeg
	{
		OFFSET	-9.46819	-3.48356	-0.699207
		CHANNELS 3  Xrotation Yrotation Zrotation
		JOINT LeftLeg
		{
			OFFSET	-2.2061	-43.2277	-0.675743
			CHANNELS 3  Xrotation Yrotation Zrotation
			JOINT LeftFoot
			{
				OFFSET	-2.15297	-39.6861	3.413
				CHANNELS 3  Xrotation Yrotation Zrotation
				JOINT LeftToeBase
				{
					OFFSET	0	-4.93976	-13.12
					CHANNELS 3  Xrotation Yrotation Zrotation
					End Site
					{
						OFFSET	0	-1.97591	-7.90362
					}
				}
			}
		}
	}
	JOINT RightUpLeg
	{
		OFFSET	9.46819	-3.48356	-0.699207
		CHANNELS 3  Xrotation Yrotation Zrotation
		JOINT RightLeg
		{
			OFFSET	2.2061	-43.2277	-0.675743
			CHANNELS 3  Xrotation Yrotation Zrotation
			JOINT RightFoot
			{
				OFFSET	2.15297	-39.6861	3.413
				CHANNELS 3  Xrotation Yrotation Zrotation
				JOINT RightToeBase
				{
					OFFSET	0	-4.93976	-13.12
					CHANNELS 3  Xrotation Yrotation Zrotation
					End Site
					{
						OFFSET	0	-1.97591	-7.90362
					}
				}
			}
		}
	}
}
MOTION
Frames: 20
Frame Time: 0.020409
 0 -9.22836 2.93546 -0 0 -0 -0 0 -0 -0 0 -0 -0 0 -0 -0 0 -0 -0 0 -0 -0 0 -0 -0 0 -0 -0 0 -0 -0 0 -0 -0 0 -0 -0 0 -0 -0 0 -0 -0 0 -0 -0 0 -0 -0 0 -0 -0 0 -0 -0 0 -0 -0 0 -0 -0 0 -0 -0 0 -0 -0 0 -0 -0 0 -0 -0 0 -0
 66.8527 92.3363 -233.773 0.622053 -156.706 -4.75164 0.000579428 -0.0170899 1.94186 2.45062 -0.0341448 3.23643 2.96588 -0.102434 3.23643 3.16723 -0.0170899 1.94186 177.237 -179.969 -179.353 170.363 166.82 172.412 176.454 149.93 -178.767 175.344 -151.767 169.846 5.16774 -31.3453 72.4698 14.515 -95.1266 12.9478 -0 -12.7103 -26.6268 1.1795 -1.84372 -2.23601 16.2563 24.949 -86.9061 148.935 142.783 -157.887 -0 11.1572 32.8809 11.1742 11.6983 7.40614 161.876 -176.728 -179.774 5.70292 0.0706461 -7.54026 1.76679 0 0 20.6737 -21.8027 8.76325 150.043 -162.901 -179.696 8.31912 -0.0332392 3.68671 8.45405 0 0
 66.8624 92.312 -233.619 0.974832 -156.854 -4.68742 0.000146759 -0.00428942 1.95957 2.57029 -0.00856993 3.26595 3.07882 -0.0257098 3.26595 3.23601 -0.00428942 1.95957 177.304 -179.969 -179.348 170.453 166.787 172.971 176.493 150.28 -178.666 175.236 -151.836 169.61 4.78614 -34.1595 71.4371 11.8896 -95.8734 10.1563 -0 -13.8647 -27.0509 0.845683 0.332678 -1.63581 17.2903 25.6365 -88.6487 149.166 141.598 -157.452 -0 10.2853 32.1193 11.3175 11.8323 7.2466 162.437 -176.702 -179.5 5.74991 -0.0233203 -7.27627 1.77248 0 0 21.0909 -21.6122 8.78048 149.455 -161.782 -179.647 8.40133 0.00451675 3.66679 8.47184 0 0
 66.8691 92.2998 -233.901 1.05233 -157.541 -4.75011 1.68084e-05 -0.000488058 1.97245 2.66101 -0.000975088 3.28742 3.18094 -0.00292526 3.28742 3.33342 -0.000488058 1.97245 177.248 -179.968 -179.343 170.174 167.021 172.802 176.42 150.602 -178.725 175.488 -151.804 170.165 3.95231 -37.5275 70.6699 11.3302 -95.8939 9.62308 -0 -14.7813 -26.9358 0.550291 1.80848 -1.07796 17.3723 26.4382 -90.1081 149.017 139.688 -156.823 -0 9.52887 31.4535 11.4644 12.1834 7.19961 162.866 -176.848 -179.553 5.55577 -0.0263982 -7.07301 1.77924 0 0 21.3212 -21.3938 8.81657 149.339 -161.253 -179.835 8.34566 -0.00978515 3.6838 8.48694 0 0
 66.973 92.2158 -234.439 0.720175 -158.015 -4.77425 180 179.998 -178.043 2.52736 0.00344029 3.26173 3.11544 0.0103209 3.26173 3.45037 0.00172193 1.95704 176.724 -179.963 -179.349 168.706 167.429 172.028 175.96 150.936 -178.829 175.949 -152.021 171.174 3.55329 -40.1669 70.0542 12.1013 -94.648 10.2667 -0 -15.3965 -26.5534 0.474271 2.9916 -0.938021 17.1394 27.8315 -89.7071 149.323 138.011 -156.522 -0 8.33917 30.3867 11.601 12.514 7.20809 162.702 -176.987 -179.664 5.6739 -0.0295752 -6.75112 1.78575 0 0 21.8185 -21.3879 9.0444 148.738 -161.281 -179.855 7.86913 -0.0236708 3.63139 8.49165 0 0
 67.1301 92.2862 -234.34 0.506472 -157.608 -4.82516 179.999 179.982 -178.043 2.48069 0.0358378 3.26223 3.06925 0.107513 3.26224 3.43247 0.0179375 1.95734 176.679 -179.962 -179.349 168.578 167.777 171.487 175.943 151.224 -179.004 176.377 -151.568 172.114 3.29032 -43.3294 69.4431 12.9006 -93.8045 11.1076 -0 -15.9617 -25.8717 0.564913 5.34127 -1.13718 17.73 30.1074 -90.4519 149.393 136.147 -156.188 -0 7.3184 28.9913 11.2639 12.9739 7.27226 162.568 -177.163 -179.7 5.73965 -0.0892067 -6.47628 1.79279 0 0 21.8116 -21.4721 9.30779 148.241 -161.455 -179.821 7.43555 -0.0207289 3.60387 8.50196 0 0
 67.3367 92.3192 -234.48 0.243742 -158.521 -5.03072 180 179.993 -178.025 2.45291 0.01463 3.29157 3.07552 0.04389 3.29157 3.50844 0.00732274 1.97494 176.448 -179.959 -179.343 167.902 167.941 171.1 175.732 151.36 -179.057 176.526 -152.191 172.436 1.67708 -45.9497 68.5156 17.662 -92.9948 15.7377 -0 -16.4314 -24.8126 0.571437 7.09666 -1.16406 17.6988 33.3378 -90.7218 148.539 133.1 -154.183 -0 6.68691 27.5527 10.9016 13.5137 7.483 162.564 -177.237 -179.815 5.50966 -0.0635473 -6.25243 1.79874 0 0 21.7888 -21.4384 9.62254 148.25 -161.437 -179.861 7.22211 -0.0176537 3.65613 8.52027 0 0
 67.6023 92.2976 -234.505 179.987 -20.8324 174.597 180 180 -177.996 2.4093 0.000492948 3.34061 3.04889 0.00147884 3.34061 3.52517 0.000246743 2.00437 176.326 -179.957 -179.333 167.585 167.953 171.108 175.63 151.437 -179.032 176.657 -151.864 172.725 179.738 -131.18 -112.707 28.9455 -91.7154 27.1416 -0 -16.6253 -23.8504 0.404216 8.8373 -0.832264 17.1406 36.5636 -90.5639 147.278 129.716 -151.74 -0 6.09255 26.397 10.4285 13.9984 7.74902 162.504 -177.344 -179.721 5.54657 -0.0706158 -6.06903 1.80525 0 0 21.7821 -21.3526 10.4054 148.43 -161.099 -179.73 7.18482 -0.108637 3.70794 8.52612 0 0
 68.0555 92.3281 -234.535 179.641 -20.2036 174.148 0.000456807 -0.0128467 2.03649 2.37813 -0.0256645 3.39414 3.03059 -0.0769936 3.39415 3.5331 -0.0128467 2.03649 176.247 -179.956 -179.323 167.38 167.929 170.877 175.557 151.271 -179.051 176.854 -153.266 173.154 178.006 -130.456 -113.87 34.6033 -91.3318 32.7277 -0 -16.8081 -23.2002 0.238948 8.76877 -0.491771 16.7849 38.5466 -88.9266 146.288 127.117 -149.978 -0 5.44022 25.4033 9.73451 14.4831 8.19923 162.733 -177.262 -179.838 7.14736 0.00718559 -5.88321 1.81742 0 0 21.5662 -21.2127 11.0541 148.51 -160.85 -179.828 7.06679 0.0338072 3.6815 8.53027 0 0
 68.4741 92.3538 -234.394 179.598 -19.8209 173.91 0.000198639 -0.00551606 2.06239 2.36337 -0.0110194 3.43732 3.00639 -0.0330582 3.43732 3.50041 -0.00551606 2.06239 176.296 -179.956 -179.314 167.54 167.913 170.849 175.606 151.196 -179.066 177.232 -153.65 173.981 177.928 -129.537 -113.852 27.1983 -91.3728 25.363 -0 -16.9221 -22.552 0.146256 9.7533 -0.302703 16.0881 41.1056 -88.1943 145.664 125.269 -149.143 -0 4.92868 24.2977 8.96118 14.8682 8.7583 163.142 -177.137 -179.883 7.69032 0.0245737 -5.7069 1.82677 0 0 21.2613 -21.2753 11.6082 148.74 -160.473 -179.752 7.11544 -0.0322114 3.70188 8.53395 0 0
 68.5733 92.3501 -234.286 179.552 -19.4708 173.752 8.81256e-05 -0.00239874 2.104 2.3349 -0.00479174 3.50666 2.95633 -0.0143752 3.50666 3.41903 -0.00239874 2.104 176.433 -179.956 -179.3 167.973 167.791 170.638 175.731 150.76 -179.111 177.664 -153.548 174.921 178.081 -129.181 -113.959 32.0861 -90.6184 30.3354 -0 -17.0344 -22.5738 179.806 170.162 -179.597 14.5378 43.6026 -88.1869 144.323 122.984 -146.976 -0 4.75966 23.6652 8.43201 15.7444 8.92594 163.618 -177.679 -179.717 6.60926 -0.0565036 -5.75269 1.8352 0 0 21.1681 -21.2783 11.8463 149.048 -160.227 -179.77 7.20309 -0.0366366 3.76669 8.53705 0 0
 68.7199 92.4334 -234.274 179.657 -19.1937 173.822 180 179.995 -177.899 2.32195 0.00999932 3.50153 2.91311 0.029998 3.50153 3.32535 0.00500564 2.10092 176.628 -179.959 -179.301 168.543 167.826 170.182 175.913 150.418 -179.253 177.896 -153.492 175.427 178.505 -129.172 -114.341 3.11544 -90.7926 1.58551 -0 -17.3647 -22.7089 179.674 170.727 -179.327 13.7144 44.9739 -87.55 143.19 121.204 -145.441 -0 4.58823 23.2668 7.89055 16.5752 9.16788 164.911 -178.239 -179.764 5.54451 -0.112621 -5.90073 1.84239 0 0 21.1635 -21.3809 12.0839 149.42 -160.064 -179.776 6.72923 -0.0718012 3.72214 8.53955 0 0
 68.7213 92.5778 -234.42 179.774 -18.8462 173.859 179.999 179.979 -177.899 2.31385 0.0426941 3.50099 2.88828 0.128082 3.501 3.28251 0.0213726 2.10059 176.715 -179.96 -179.301 168.807 167.742 169.988 175.987 150.081 -179.291 177.909 -154.153 175.456 178.591 -129.951 -114.533 164.608 -88.9117 163.141 -0 -17.6728 -23.0363 179.535 171.336 -179.043 12.3328 45.5343 -85.342 142.759 120.296 -145.004 -0 4.50843 23.0414 7.53621 17.3113 9.18698 165.96 -178.511 -179.656 4.6949 -0.180617 -6.01926 1.84859 0 0 21.1618 -21.5597 12.0699 149.885 -159.999 -179.741 6.32628 -0.0846712 3.6783 8.54146 0 0
 68.6345 92.6787 -234.505 179.719 -18.7356 173.949 180 179.998 -177.92 2.25098 0.00460367 3.4675 2.82742 0.013811 3.4675 3.23175 0.00230454 2.0805 176.712 -179.96 -179.308 168.88 167.582 170.077 175.996 149.836 -179.241 177.999 -154.706 175.654 178.733 -130.918 -114.23 159.286 -88.3304 157.755 -0 -17.9631 -23.2742 179.683 172.062 -179.351 11.4901 45.6329 -83.8226 142.957 120.126 -145.31 -0 4.44466 23.119 7.35442 17.9642 9.0551 166.563 -178.617 -179.728 3.99371 -0.109018 -6.15887 1.89357 0 0 21.302 -21.6998 12.048 150.289 -160.084 -179.552 5.57849 -0.0866068 3.66959 8.54269 0 0
 68.7473 92.7237 -234.638 179.748 -18.1431 174.003 0.000525669 -0.014512 2.07452 2.19188 -0.0289902 3.45754 2.751 -0.0869705 3.45754 3.12745 -0.014512 2.07452 176.841 -179.962 -179.31 169.315 167.565 169.847 176.134 149.567 -179.319 178.238 -155.11 176.173 178.095 -132.062 -114.44 158.047 -87.8211 156.542 -0 -18.2418 -23.5099 0.124972 7.5416 -0.255282 11.2033 45.8924 -83.3647 143.778 120.63 -146.233 -0 4.4899 23.1869 7.24422 18.4475 9.01088 166.556 -178.42 -179.708 3.92878 -0.0448219 -6.38944 1.94336 0 0 21.5002 -21.7721 11.9502 150.323 -159.89 -179.441 5.27587 0.000452129 3.6781 8.5534 0 0
 68.9062 92.6923 -234.714 179.778 -17.4841 173.939 0.000745002 -0.0206411 2.06709 2.13543 -0.0412345 3.44514 2.66754 -0.123703 3.44515 3.00414 -0.0206411 2.06709 177.021 -179.964 -179.312 169.903 167.502 169.64 176.318 149.199 -179.396 178.438 -155.802 176.611 177.474 -133.645 -115.018 159.308 -87.353 157.817 -0 -18.6554 -23.7806 0.513024 7.33506 -1.04665 10.6116 46.1994 -82.8096 144.883 121.497 -147.448 -0 4.51838 23.1112 7.26448 18.7197 9.15952 166.287 -178.22 -179.766 4.06435 0.0347842 -6.58634 1.992 0 0 21.7668 -21.787 12.2295 150.246 -159.626 -179.365 5.19468 -0.0601728 3.71006 8.56176 0 0
 69.1335 92.6432 -234.722 179.946 -17.0453 174.035 0.000644225 -0.0183919 2.00612 2.07987 -0.0367437 3.34353 2.59693 -0.110231 3.34354 2.92408 -0.0183919 2.00612 177.103 -179.966 -179.332 170.229 167.27 169.796 176.405 148.833 -179.342 178.747 -156.358 177.284 177.161 -135.246 -115.385 159.039 -87.1751 157.527 -0 -19.0565 -24.0497 0.734379 6.92863 -1.49445 9.35209 46.2756 -81.8704 146.1 122.686 -148.845 -0 4.60109 23.1151 7.24258 18.9938 9.2493 165.803 -177.979 -179.785 4.63943 0.022918 -6.76173 2.03452 0 0 22.0781 -21.7951 12.294 150.196 -159.539 -179.42 5.19369 -0.0254923 3.72112 8.56948 0 0
 69.1768 92.541 -234.847 0.0875903 -163.473 -5.85606 0.000423928 -0.0123284 1.96942 2.00065 -0.0246308 3.28236 2.51012 -0.0738925 3.28237 2.85319 -0.0123284 1.96942 177.12 -179.967 -179.344 170.41 166.877 170.25 176.432 148.424 -179.181 178.909 -157.232 177.638 176.801 -137.286 -116.135 156.529 -87.3771 154.842 -0 -19.471 -24.3664 0.603483 5.6712 -1.21766 6.47493 45.4752 -79.2099 147.932 124.728 -150.946 -0 4.55656 23.3041 7.46142 19.3291 9.2807 165.342 -177.804 -179.762 5.10227 0.0185123 -6.92913 2.07983 0 0 22.4543 -21.8012 12.3751 150.343 -159.403 -179.399 5.20134 -0.105395 3.75773 8.5758 0 0
 69.1847 92.5451 -234.929 0.328122 -163.481 -5.80718 0.000271231 -0.00796438 1.95048 1.92632 -0.0159123 3.25081 2.43346 -0.047737 3.25081 2.79987 -0.00796438 1.95048 177.105 -179.967 -179.351 170.5 166.401 170.716 176.42 147.886 -178.988 179.09 -157.023 178.029 176.532 -138.495 -116.975 152.292 -87.7687 150.716 -0 -19.8443 -24.4474 1.02191 4.98259 -2.05228 5.28576 44.6098 -77.6908 149.865 127.233 -153.487 -0 4.44987 23.4196 7.83801 19.6936 9.16117 165.031 -177.616 -179.673 4.99955 -0.00925649 -7.05106 2.11979 0 0 22.6805 -21.9849 12.5137 150.326 -159.341 -179.432 5.21573 -0.140873 3.77476 8.581 0 0
 69.2315 92.4528 -235.197 0.389703 -163.664 -5.92248 0.000118305 -0.00349145 1.94067 1.84649 -0.00697579 3.23445 2.34103 -0.0209274 3.23445 2.71213 -0.00349145 1.94067 177.159 -179.968 -179.354 170.786 166.047 171.027 176.485 147.438 -178.875 179.147 -156.898 178.153 175.863 -139.833 -118.438 123.052 -88.8383 121.367 -0 -20.0975 -24.4944 1.32499 4.08972 -2.64406 4.02418 43.5893 -76.9833 151.882 130.219 -156.01 -0 4.19337 23.4158 8.14894 20.1257 9.34409 164.573 -177.496 -179.683 5.09693 -0.0134705 -7.16225 2.15455 0 0 23.2682 -21.9631 12.7756 150.281 -159.327 -179.482 5.22833 -0.0829218 3.78371 8.58532 0 0
